<svg width="21" height="21" viewBox="0 0 21 21" fill="none" xmlns="http://www.w3.org/2000/svg">
<mask id="mask0_70_31" style="mask-type:alpha" maskUnits="userSpaceOnUse" x="0" y="0" width="21" height="21">
<rect x="0.454544" y="0.696968" width="20" height="20" fill="#D9D9D9"/>
</mask>
<g mask="url(#mask0_70_31)">
<path d="M10.4545 14.655C11.3572 14.655 12.1105 14.353 12.7145 13.749C13.3192 13.145 13.6215 12.3983 13.6215 11.509C13.6215 11.4536 13.6179 11.388 13.6105 11.312C13.6039 11.2353 13.5865 11.1693 13.5585 11.114H12.6425C12.6699 11.1693 12.6835 11.2353 12.6835 11.312V11.509C12.6835 12.1483 12.4719 12.6796 12.0485 13.103C11.6245 13.527 11.0932 13.739 10.4545 13.739H8.37154C8.56554 14.003 8.85021 14.2216 9.22554 14.395C9.60021 14.5683 10.0099 14.655 10.4545 14.655ZM7.35054 11.926H8.26654C8.25321 11.8706 8.24654 11.8046 8.24654 11.728V11.509C8.24654 10.8843 8.45488 10.3603 8.87154 9.93697C9.28821 9.51297 9.81588 9.30097 10.4545 9.30097H12.5375C12.3015 9.02363 12.0135 8.79797 11.6735 8.62397C11.3329 8.45063 10.9265 8.36397 10.4545 8.36397C9.56588 8.36397 8.82288 8.66597 8.22554 9.26997C7.62821 9.87397 7.32954 10.6203 7.32954 11.509C7.32954 11.579 7.32621 11.652 7.31954 11.728C7.31221 11.8046 7.32254 11.8706 7.35054 11.926ZM4.39254 17.364C3.97521 17.364 3.63121 17.2283 3.36054 16.957C3.08988 16.6863 2.95454 16.3426 2.95454 15.926V7.11397C2.95454 6.6973 3.08988 6.3533 3.36054 6.08197C3.63121 5.8113 3.97521 5.67597 4.39254 5.67597H6.76654L8.28754 4.02997H12.6215L14.1625 5.67597H16.5165C16.9339 5.67597 17.2779 5.8113 17.5485 6.08197C17.8192 6.3533 17.9545 6.6973 17.9545 7.11397V15.926C17.9545 16.3426 17.8192 16.6863 17.5485 16.957C17.2779 17.2283 16.9339 17.364 16.5165 17.364H4.39254ZM16.5165 16.447C16.6699 16.447 16.7952 16.3983 16.8925 16.301C16.9892 16.2036 17.0375 16.0786 17.0375 15.926V7.11397C17.0375 6.9613 16.9892 6.8363 16.8925 6.73897C16.7952 6.64163 16.6699 6.59297 16.5165 6.59297H13.8085L12.2465 4.94697H8.68354L7.12154 6.59297H4.39254C4.23921 6.59297 4.11388 6.64163 4.01654 6.73897C3.91988 6.8363 3.87154 6.9613 3.87154 7.11397V15.926C3.87154 16.0786 3.91988 16.2036 4.01654 16.301C4.11388 16.3983 4.23921 16.447 4.39254 16.447H16.5165Z" fill="#1C1B1F"/>
</g>
</svg>
