<svg width="21" height="20" viewBox="0 0 21 20" fill="none" xmlns="http://www.w3.org/2000/svg">
<mask id="mask0_66_7" style="mask-type:alpha" maskUnits="userSpaceOnUse" x="0" y="0" width="21" height="20">
<rect x="0.24324" width="20" height="20" fill="#D9D9D9"/>
</mask>
<g mask="url(#mask0_66_7)">
<path d="M16.5766 17.5L11.3266 12.25C10.9099 12.5833 10.4307 12.8472 9.88907 13.0417C9.34741 13.2361 8.77102 13.3333 8.15991 13.3333C6.64602 13.3333 5.36491 12.8092 4.31657 11.7608C3.26768 10.7119 2.74324 9.43056 2.74324 7.91667C2.74324 6.40278 3.26768 5.12139 4.31657 4.0725C5.36491 3.02417 6.64602 2.5 8.15991 2.5C9.6738 2.5 10.9552 3.02417 12.0041 4.0725C13.0524 5.12139 13.5766 6.40278 13.5766 7.91667C13.5766 8.52778 13.4794 9.10417 13.2849 9.64583C13.0905 10.1875 12.8266 10.6667 12.4932 11.0833L17.7432 16.3333L16.5766 17.5ZM8.15991 11.6667C9.20157 11.6667 10.0871 11.3022 10.8166 10.5733C11.5455 9.84389 11.9099 8.95833 11.9099 7.91667C11.9099 6.875 11.5455 5.98944 10.8166 5.26C10.0871 4.53111 9.20157 4.16667 8.15991 4.16667C7.11824 4.16667 6.23268 4.53111 5.50324 5.26C4.77435 5.98944 4.40991 6.875 4.40991 7.91667C4.40991 8.95833 4.77435 9.84389 5.50324 10.5733C6.23268 11.3022 7.11824 11.6667 8.15991 11.6667Z" fill="#002F47"/>
</g>
</svg>
